# xmcd
#
# Track frame offsets: 
#        150
#        24981
#        50759
#        81294
#        105777
#        131546
#        158861
#        183699
#        206477
#        225620
#
# Disc length: 3302 seconds
#
# Revision: 0
# Processed by: cddbd v1.5.2PL0 Copyright (c) Steve Scherf et al.
# Submitted via: ExactAudioCopy v1.0b3
#
DISCID=7b0ce40a
DTITLE=Truong Vu - Ngay Tro Ve
DYEAR=2000
DGENRE=
TTITLE0=Mot ngay toi di qua
TTITLE1=Ngay sau se ra dao
TTITLE2=Mot ngay tan chien tranh
TTITLE3=Nhung ngay xua than ai
TTITLE4=Xin anh giu tron tinh que
TTITLE5=Hai hoa rung cho em
TTITLE6=Huyen thoai mot chieu mua
TTITLE7=Thuong ve mua dong bien gioi
TTITLE8=Ngay mai toi ve
TTITLE9=Ngay tro ve
EXTD=
EXTT0=
EXTT1=
EXTT2=
EXTT3=
EXTT4=
EXTT5=
EXTT6=
EXTT7=
EXTT8=
EXTT9=
PLAYORDER=
